<?xml version="1.0" encoding="UTF-8" standalone="no"?>
<!DOCTYPE svg PUBLIC "-//W3C//DTD SVG 1.1//EN"
 "http://www.w3.org/Graphics/SVG/1.1/DTD/svg11.dtd">
<!-- Generated by graphviz version 2.28.0 (20110509.1545)
 -->
<!-- Title: controllers_diagram Pages: 1 -->
<svg width="765pt" height="771pt"
 viewBox="0.00 0.00 765.06 771.00" xmlns="http://www.w3.org/2000/svg" xmlns:xlink="http://www.w3.org/1999/xlink">
<g id="graph1" class="graph" transform="scale(1 1) rotate(0) translate(4 767)">
<title>controllers_diagram</title>
<polygon fill="white" stroke="white" points="-4,5 -4,-767 762.058,-767 762.058,5 -4,5"/>
<!-- _diagram_info -->
<g id="node1" class="node"><title>_diagram_info</title>
<text text-anchor="start" x="530" y="-105" font-family="Times,serif" font-size="13.00">Controllers diagram</text>
<text text-anchor="start" x="530" y="-89.4" font-family="Times,serif" font-size="13.00">Date: Nov 28 2011 &#45; 11:48</text>
<text text-anchor="start" x="530" y="-73.8" font-family="Times,serif" font-size="13.00">Migration version: 20111111183938</text>
<text text-anchor="start" x="530" y="-58.2" font-family="Times,serif" font-size="13.00">Generated by RailRoady 1.0.2</text>
<text text-anchor="start" x="530" y="-42.6" font-family="Times,serif" font-size="13.00">http://railroady.prestonlee.com</text>
</g>
<!-- ActionsController -->
<g id="node2" class="node"><title>ActionsController</title>
<polyline fill="none" stroke="black" points="318,-630.5 411.097,-630.5 "/>
<path fill="none" stroke="black" d="M411.097,-630.5C417.097,-630.5 423.097,-636.5 423.097,-642.5"/>
<polyline fill="none" stroke="black" points="423.097,-642.5 423.097,-716.1 "/>
<path fill="none" stroke="black" d="M423.097,-716.1C423.097,-722.1 417.097,-728.1 411.097,-728.1"/>
<polyline fill="none" stroke="black" points="411.097,-728.1 318,-728.1 "/>
<path fill="none" stroke="black" d="M318,-728.1C312,-728.1 306,-722.1 306,-716.1"/>
<polyline fill="none" stroke="black" points="306,-716.1 306,-642.5 "/>
<path fill="none" stroke="black" d="M306,-642.5C306,-636.5 312,-630.5 318,-630.5"/>
<text text-anchor="middle" x="364.548" y="-710.1" font-family="Times,serif" font-size="14.00">ActionsController</text>
<polyline fill="none" stroke="black" points="306,-703.3 423.097,-703.3 "/>
<polyline fill="none" stroke="black" points="306,-679.3 423.097,-679.3 "/>
<polyline fill="none" stroke="black" points="306,-655.3 423.097,-655.3 "/>
<text text-anchor="start" x="314" y="-637.3" font-family="Times,serif" font-size="14.00">_layout</text>
</g>
<!-- ApplicationController -->
<g id="node3" class="node"><title>ApplicationController</title>
<polyline fill="none" stroke="black" points="300,-18.5 478.635,-18.5 "/>
<path fill="none" stroke="black" d="M478.635,-18.5C484.635,-18.5 490.635,-24.5 490.635,-30.5"/>
<polyline fill="none" stroke="black" points="490.635,-30.5 490.635,-121.7 "/>
<path fill="none" stroke="black" d="M490.635,-121.7C490.635,-127.7 484.635,-133.7 478.635,-133.7"/>
<polyline fill="none" stroke="black" points="478.635,-133.7 300,-133.7 "/>
<path fill="none" stroke="black" d="M300,-133.7C294,-133.7 288,-127.7 288,-121.7"/>
<polyline fill="none" stroke="black" points="288,-121.7 288,-30.5 "/>
<path fill="none" stroke="black" d="M288,-30.5C288,-24.5 294,-18.5 300,-18.5"/>
<text text-anchor="middle" x="389.317" y="-115.7" font-family="Times,serif" font-size="14.00">ApplicationController</text>
<polyline fill="none" stroke="black" points="288,-108.9 490.635,-108.9 "/>
<text text-anchor="start" x="296" y="-90.9" font-family="Times,serif" font-size="14.00">_one_time_conditions_valid_42?</text>
<polyline fill="none" stroke="black" points="288,-84.1 490.635,-84.1 "/>
<polyline fill="none" stroke="black" points="288,-60.1 490.635,-60.1 "/>
<text text-anchor="start" x="296" y="-42.1" font-family="Times,serif" font-size="14.00">_layout</text>
<text text-anchor="start" x="296" y="-25.3" font-family="Times,serif" font-size="14.00">_run_process_action_callbacks</text>
</g>
<!-- ApplicationsController -->
<g id="node4" class="node"><title>ApplicationsController</title>
<polyline fill="none" stroke="black" points="462,-630.5 583.09,-630.5 "/>
<path fill="none" stroke="black" d="M583.09,-630.5C589.09,-630.5 595.09,-636.5 595.09,-642.5"/>
<polyline fill="none" stroke="black" points="595.09,-642.5 595.09,-716.9 "/>
<path fill="none" stroke="black" d="M595.09,-716.9C595.09,-722.9 589.09,-728.9 583.09,-728.9"/>
<polyline fill="none" stroke="black" points="583.09,-728.9 462,-728.9 "/>
<path fill="none" stroke="black" d="M462,-728.9C456,-728.9 450,-722.9 450,-716.9"/>
<polyline fill="none" stroke="black" points="450,-716.9 450,-642.5 "/>
<path fill="none" stroke="black" d="M450,-642.5C450,-636.5 456,-630.5 462,-630.5"/>
<text text-anchor="middle" x="522.545" y="-710.9" font-family="Times,serif" font-size="14.00">ApplicationsController</text>
<polyline fill="none" stroke="black" points="450,-704.1 595.09,-704.1 "/>
<text text-anchor="start" x="458" y="-686.1" font-family="Times,serif" font-size="14.00">index</text>
<polyline fill="none" stroke="black" points="450,-679.3 595.09,-679.3 "/>
<polyline fill="none" stroke="black" points="450,-655.3 595.09,-655.3 "/>
<text text-anchor="start" x="458" y="-637.3" font-family="Times,serif" font-size="14.00">_layout</text>
</g>
<!-- AuthenticationsController -->
<g id="node5" class="node"><title>AuthenticationsController</title>
<polyline fill="none" stroke="black" points="12,-0.5 150.193,-0.5 "/>
<path fill="none" stroke="black" d="M150.193,-0.5C156.193,-0.5 162.193,-6.5 162.193,-12.5"/>
<polyline fill="none" stroke="black" points="162.193,-12.5 162.193,-120.5 "/>
<path fill="none" stroke="black" d="M162.193,-120.5C162.193,-126.5 156.193,-132.5 150.193,-132.5"/>
<polyline fill="none" stroke="black" points="150.193,-132.5 12,-132.5 "/>
<path fill="none" stroke="black" d="M12,-132.5C6,-132.5 0,-126.5 0,-120.5"/>
<polyline fill="none" stroke="black" points="0,-120.5 0,-12.5 "/>
<path fill="none" stroke="black" d="M0,-12.5C0,-6.5 6,-0.5 12,-0.5"/>
<text text-anchor="middle" x="81.0967" y="-114.5" font-family="Times,serif" font-size="14.00">AuthenticationsController</text>
<polyline fill="none" stroke="black" points="0,-107.7 162.193,-107.7 "/>
<text text-anchor="start" x="8" y="-89.7" font-family="Times,serif" font-size="14.00">create</text>
<text text-anchor="start" x="8" y="-72.9" font-family="Times,serif" font-size="14.00">destroy</text>
<text text-anchor="start" x="8" y="-56.1" font-family="Times,serif" font-size="14.00">index</text>
<polyline fill="none" stroke="black" points="0,-49.3 162.193,-49.3 "/>
<polyline fill="none" stroke="black" points="0,-25.3 162.193,-25.3 "/>
<text text-anchor="start" x="8" y="-7.3" font-family="Times,serif" font-size="14.00">_layout</text>
</g>
<!-- MilestonesController -->
<g id="node6" class="node"><title>MilestonesController</title>
<polyline fill="none" stroke="black" points="192,-450.5 370.635,-450.5 "/>
<path fill="none" stroke="black" d="M370.635,-450.5C376.635,-450.5 382.635,-456.5 382.635,-462.5"/>
<polyline fill="none" stroke="black" points="382.635,-462.5 382.635,-587.3 "/>
<path fill="none" stroke="black" d="M382.635,-587.3C382.635,-593.3 376.635,-599.3 370.635,-599.3"/>
<polyline fill="none" stroke="black" points="370.635,-599.3 192,-599.3 "/>
<path fill="none" stroke="black" d="M192,-599.3C186,-599.3 180,-593.3 180,-587.3"/>
<polyline fill="none" stroke="black" points="180,-587.3 180,-462.5 "/>
<path fill="none" stroke="black" d="M180,-462.5C180,-456.5 186,-450.5 192,-450.5"/>
<text text-anchor="middle" x="281.317" y="-581.3" font-family="Times,serif" font-size="14.00">MilestonesController</text>
<polyline fill="none" stroke="black" points="180,-574.5 382.635,-574.5 "/>
<text text-anchor="start" x="188" y="-556.5" font-family="Times,serif" font-size="14.00">_one_time_conditions_valid_44?</text>
<text text-anchor="start" x="188" y="-539.7" font-family="Times,serif" font-size="14.00">index</text>
<text text-anchor="start" x="188" y="-522.9" font-family="Times,serif" font-size="14.00">post_data</text>
<polyline fill="none" stroke="black" points="180,-516.1 382.635,-516.1 "/>
<polyline fill="none" stroke="black" points="180,-492.1 382.635,-492.1 "/>
<text text-anchor="start" x="188" y="-474.1" font-family="Times,serif" font-size="14.00">_layout</text>
<text text-anchor="start" x="188" y="-457.3" font-family="Times,serif" font-size="14.00">_run_process_action_callbacks</text>
</g>
<!-- NotificationsController -->
<g id="node7" class="node"><title>NotificationsController</title>
<polyline fill="none" stroke="black" points="12,-576.5 133.876,-576.5 "/>
<path fill="none" stroke="black" d="M133.876,-576.5C139.876,-576.5 145.876,-582.5 145.876,-588.5"/>
<polyline fill="none" stroke="black" points="145.876,-588.5 145.876,-679.7 "/>
<path fill="none" stroke="black" d="M145.876,-679.7C145.876,-685.7 139.876,-691.7 133.876,-691.7"/>
<polyline fill="none" stroke="black" points="133.876,-691.7 12,-691.7 "/>
<path fill="none" stroke="black" d="M12,-691.7C6,-691.7 0,-685.7 0,-679.7"/>
<polyline fill="none" stroke="black" points="0,-679.7 0,-588.5 "/>
<path fill="none" stroke="black" d="M0,-588.5C0,-582.5 6,-576.5 12,-576.5"/>
<text text-anchor="middle" x="72.938" y="-673.7" font-family="Times,serif" font-size="14.00">NotificationsController</text>
<polyline fill="none" stroke="black" points="0,-666.9 145.876,-666.9 "/>
<text text-anchor="start" x="8" y="-648.9" font-family="Times,serif" font-size="14.00">index</text>
<text text-anchor="start" x="8" y="-632.1" font-family="Times,serif" font-size="14.00">setread</text>
<polyline fill="none" stroke="black" points="0,-625.3 145.876,-625.3 "/>
<polyline fill="none" stroke="black" points="0,-601.3 145.876,-601.3 "/>
<text text-anchor="start" x="8" y="-583.3" font-family="Times,serif" font-size="14.00">_layout</text>
</g>
<!-- OffersController -->
<g id="node8" class="node"><title>OffersController</title>
<polyline fill="none" stroke="black" points="660,-162.5 745.058,-162.5 "/>
<path fill="none" stroke="black" d="M745.058,-162.5C751.058,-162.5 757.058,-168.5 757.058,-174.5"/>
<polyline fill="none" stroke="black" points="757.058,-174.5 757.058,-265.7 "/>
<path fill="none" stroke="black" d="M757.058,-265.7C757.058,-271.7 751.058,-277.7 745.058,-277.7"/>
<polyline fill="none" stroke="black" points="745.058,-277.7 660,-277.7 "/>
<path fill="none" stroke="black" d="M660,-277.7C654,-277.7 648,-271.7 648,-265.7"/>
<polyline fill="none" stroke="black" points="648,-265.7 648,-174.5 "/>
<path fill="none" stroke="black" d="M648,-174.5C648,-168.5 654,-162.5 660,-162.5"/>
<text text-anchor="middle" x="702.529" y="-259.7" font-family="Times,serif" font-size="14.00">OffersController</text>
<polyline fill="none" stroke="black" points="648,-252.9 757.058,-252.9 "/>
<text text-anchor="start" x="656" y="-234.9" font-family="Times,serif" font-size="14.00">create</text>
<text text-anchor="start" x="656" y="-218.1" font-family="Times,serif" font-size="14.00">new</text>
<polyline fill="none" stroke="black" points="648,-211.3 757.058,-211.3 "/>
<polyline fill="none" stroke="black" points="648,-187.3 757.058,-187.3 "/>
<text text-anchor="start" x="656" y="-169.3" font-family="Times,serif" font-size="14.00">_layout</text>
</g>
<!-- PagesController -->
<g id="node9" class="node"><title>PagesController</title>
<polyline fill="none" stroke="black" points="48,-288.5 130.207,-288.5 "/>
<path fill="none" stroke="black" d="M130.207,-288.5C136.207,-288.5 142.207,-294.5 142.207,-300.5"/>
<polyline fill="none" stroke="black" points="142.207,-300.5 142.207,-458.9 "/>
<path fill="none" stroke="black" d="M142.207,-458.9C142.207,-464.9 136.207,-470.9 130.207,-470.9"/>
<polyline fill="none" stroke="black" points="130.207,-470.9 48,-470.9 "/>
<path fill="none" stroke="black" d="M48,-470.9C42,-470.9 36,-464.9 36,-458.9"/>
<polyline fill="none" stroke="black" points="36,-458.9 36,-300.5 "/>
<path fill="none" stroke="black" d="M36,-300.5C36,-294.5 42,-288.5 48,-288.5"/>
<text text-anchor="middle" x="89.1035" y="-452.9" font-family="Times,serif" font-size="14.00">PagesController</text>
<polyline fill="none" stroke="black" points="36,-446.1 142.207,-446.1 "/>
<text text-anchor="start" x="44" y="-428.1" font-family="Times,serif" font-size="14.00">all_read</text>
<text text-anchor="start" x="44" y="-411.3" font-family="Times,serif" font-size="14.00">dashboard</text>
<text text-anchor="start" x="44" y="-394.5" font-family="Times,serif" font-size="14.00">files</text>
<text text-anchor="start" x="44" y="-377.7" font-family="Times,serif" font-size="14.00">gantt</text>
<text text-anchor="start" x="44" y="-360.9" font-family="Times,serif" font-size="14.00">home</text>
<text text-anchor="start" x="44" y="-344.1" font-family="Times,serif" font-size="14.00">projsearch</text>
<polyline fill="none" stroke="black" points="36,-337.3 142.207,-337.3 "/>
<polyline fill="none" stroke="black" points="36,-313.3 142.207,-313.3 "/>
<text text-anchor="start" x="44" y="-295.3" font-family="Times,serif" font-size="14.00">_layout</text>
</g>
<!-- ProgLangsController -->
<g id="node10" class="node"><title>ProgLangsController</title>
<polyline fill="none" stroke="black" points="30,-162.5 140.207,-162.5 "/>
<path fill="none" stroke="black" d="M140.207,-162.5C146.207,-162.5 152.207,-168.5 152.207,-174.5"/>
<polyline fill="none" stroke="black" points="152.207,-174.5 152.207,-248.9 "/>
<path fill="none" stroke="black" d="M152.207,-248.9C152.207,-254.9 146.207,-260.9 140.207,-260.9"/>
<polyline fill="none" stroke="black" points="140.207,-260.9 30,-260.9 "/>
<path fill="none" stroke="black" d="M30,-260.9C24,-260.9 18,-254.9 18,-248.9"/>
<polyline fill="none" stroke="black" points="18,-248.9 18,-174.5 "/>
<path fill="none" stroke="black" d="M18,-174.5C18,-168.5 24,-162.5 30,-162.5"/>
<text text-anchor="middle" x="85.1035" y="-242.9" font-family="Times,serif" font-size="14.00">ProgLangsController</text>
<polyline fill="none" stroke="black" points="18,-236.1 152.207,-236.1 "/>
<text text-anchor="start" x="26" y="-218.1" font-family="Times,serif" font-size="14.00">index</text>
<polyline fill="none" stroke="black" points="18,-211.3 152.207,-211.3 "/>
<polyline fill="none" stroke="black" points="18,-187.3 152.207,-187.3 "/>
<text text-anchor="start" x="26" y="-169.3" font-family="Times,serif" font-size="14.00">_layout</text>
</g>
<!-- ProjectsController -->
<g id="node11" class="node"><title>ProjectsController</title>
<polyline fill="none" stroke="black" points="192,-162.5 370.635,-162.5 "/>
<path fill="none" stroke="black" d="M370.635,-162.5C376.635,-162.5 382.635,-168.5 382.635,-174.5"/>
<polyline fill="none" stroke="black" points="382.635,-174.5 382.635,-400.1 "/>
<path fill="none" stroke="black" d="M382.635,-400.1C382.635,-406.1 376.635,-412.1 370.635,-412.1"/>
<polyline fill="none" stroke="black" points="370.635,-412.1 192,-412.1 "/>
<path fill="none" stroke="black" d="M192,-412.1C186,-412.1 180,-406.1 180,-400.1"/>
<polyline fill="none" stroke="black" points="180,-400.1 180,-174.5 "/>
<path fill="none" stroke="black" d="M180,-174.5C180,-168.5 186,-162.5 192,-162.5"/>
<text text-anchor="middle" x="281.317" y="-394.1" font-family="Times,serif" font-size="14.00">ProjectsController</text>
<polyline fill="none" stroke="black" points="180,-387.3 382.635,-387.3 "/>
<text text-anchor="start" x="188" y="-369.3" font-family="Times,serif" font-size="14.00">_one_time_conditions_valid_48?</text>
<text text-anchor="start" x="188" y="-352.5" font-family="Times,serif" font-size="14.00">assign</text>
<text text-anchor="start" x="188" y="-335.7" font-family="Times,serif" font-size="14.00">authenticate</text>
<text text-anchor="start" x="188" y="-318.9" font-family="Times,serif" font-size="14.00">confirm</text>
<text text-anchor="start" x="188" y="-302.1" font-family="Times,serif" font-size="14.00">create</text>
<text text-anchor="start" x="188" y="-285.3" font-family="Times,serif" font-size="14.00">index</text>
<text text-anchor="start" x="188" y="-268.5" font-family="Times,serif" font-size="14.00">new</text>
<text text-anchor="start" x="188" y="-251.7" font-family="Times,serif" font-size="14.00">show</text>
<text text-anchor="start" x="188" y="-234.9" font-family="Times,serif" font-size="14.00">update</text>
<polyline fill="none" stroke="black" points="180,-228.1 382.635,-228.1 "/>
<polyline fill="none" stroke="black" points="180,-204.1 382.635,-204.1 "/>
<text text-anchor="start" x="188" y="-186.1" font-family="Times,serif" font-size="14.00">_layout</text>
<text text-anchor="start" x="188" y="-169.3" font-family="Times,serif" font-size="14.00">_run_process_action_callbacks</text>
</g>
<!-- SessionsController -->
<g id="node12" class="node"><title>SessionsController</title>
<polyline fill="none" stroke="black" points="642,-630.5 739.779,-630.5 "/>
<path fill="none" stroke="black" d="M739.779,-630.5C745.779,-630.5 751.779,-636.5 751.779,-642.5"/>
<polyline fill="none" stroke="black" points="751.779,-642.5 751.779,-750.5 "/>
<path fill="none" stroke="black" d="M751.779,-750.5C751.779,-756.5 745.779,-762.5 739.779,-762.5"/>
<polyline fill="none" stroke="black" points="739.779,-762.5 642,-762.5 "/>
<path fill="none" stroke="black" d="M642,-762.5C636,-762.5 630,-756.5 630,-750.5"/>
<polyline fill="none" stroke="black" points="630,-750.5 630,-642.5 "/>
<path fill="none" stroke="black" d="M630,-642.5C630,-636.5 636,-630.5 642,-630.5"/>
<text text-anchor="middle" x="690.89" y="-744.5" font-family="Times,serif" font-size="14.00">SessionsController</text>
<polyline fill="none" stroke="black" points="630,-737.7 751.779,-737.7 "/>
<text text-anchor="start" x="638" y="-719.7" font-family="Times,serif" font-size="14.00">create</text>
<text text-anchor="start" x="638" y="-702.9" font-family="Times,serif" font-size="14.00">destroy</text>
<text text-anchor="start" x="638" y="-686.1" font-family="Times,serif" font-size="14.00">new</text>
<polyline fill="none" stroke="black" points="630,-679.3 751.779,-679.3 "/>
<polyline fill="none" stroke="black" points="630,-655.3 751.779,-655.3 "/>
<text text-anchor="start" x="638" y="-637.3" font-family="Times,serif" font-size="14.00">_layout</text>
</g>
<!-- TasksController -->
<g id="node13" class="node"><title>TasksController</title>
<polyline fill="none" stroke="black" points="426,-414.5 604.635,-414.5 "/>
<path fill="none" stroke="black" d="M604.635,-414.5C610.635,-414.5 616.635,-420.5 616.635,-426.5"/>
<polyline fill="none" stroke="black" points="616.635,-426.5 616.635,-584.9 "/>
<path fill="none" stroke="black" d="M616.635,-584.9C616.635,-590.9 610.635,-596.9 604.635,-596.9"/>
<polyline fill="none" stroke="black" points="604.635,-596.9 426,-596.9 "/>
<path fill="none" stroke="black" d="M426,-596.9C420,-596.9 414,-590.9 414,-584.9"/>
<polyline fill="none" stroke="black" points="414,-584.9 414,-426.5 "/>
<path fill="none" stroke="black" d="M414,-426.5C414,-420.5 420,-414.5 426,-414.5"/>
<text text-anchor="middle" x="515.317" y="-578.9" font-family="Times,serif" font-size="14.00">TasksController</text>
<polyline fill="none" stroke="black" points="414,-572.1 616.635,-572.1 "/>
<text text-anchor="start" x="422" y="-554.1" font-family="Times,serif" font-size="14.00">_one_time_conditions_valid_52?</text>
<text text-anchor="start" x="422" y="-537.3" font-family="Times,serif" font-size="14.00">create</text>
<text text-anchor="start" x="422" y="-520.5" font-family="Times,serif" font-size="14.00">index</text>
<text text-anchor="start" x="422" y="-503.7" font-family="Times,serif" font-size="14.00">new</text>
<text text-anchor="start" x="422" y="-486.9" font-family="Times,serif" font-size="14.00">post_data</text>
<polyline fill="none" stroke="black" points="414,-480.1 616.635,-480.1 "/>
<polyline fill="none" stroke="black" points="414,-456.1 616.635,-456.1 "/>
<text text-anchor="start" x="422" y="-438.1" font-family="Times,serif" font-size="14.00">_layout</text>
<text text-anchor="start" x="422" y="-421.3" font-family="Times,serif" font-size="14.00">_run_process_action_callbacks</text>
</g>
<!-- UsersController -->
<g id="node14" class="node"><title>UsersController</title>
<polyline fill="none" stroke="black" points="426,-162.5 604.635,-162.5 "/>
<path fill="none" stroke="black" d="M604.635,-162.5C610.635,-162.5 616.635,-168.5 616.635,-174.5"/>
<polyline fill="none" stroke="black" points="616.635,-174.5 616.635,-366.5 "/>
<path fill="none" stroke="black" d="M616.635,-366.5C616.635,-372.5 610.635,-378.5 604.635,-378.5"/>
<polyline fill="none" stroke="black" points="604.635,-378.5 426,-378.5 "/>
<path fill="none" stroke="black" d="M426,-378.5C420,-378.5 414,-372.5 414,-366.5"/>
<polyline fill="none" stroke="black" points="414,-366.5 414,-174.5 "/>
<path fill="none" stroke="black" d="M414,-174.5C414,-168.5 420,-162.5 426,-162.5"/>
<text text-anchor="middle" x="515.317" y="-360.5" font-family="Times,serif" font-size="14.00">UsersController</text>
<polyline fill="none" stroke="black" points="414,-353.7 616.635,-353.7 "/>
<text text-anchor="start" x="422" y="-335.7" font-family="Times,serif" font-size="14.00">_one_time_conditions_valid_56?</text>
<text text-anchor="start" x="422" y="-318.9" font-family="Times,serif" font-size="14.00">create</text>
<text text-anchor="start" x="422" y="-302.1" font-family="Times,serif" font-size="14.00">new</text>
<text text-anchor="start" x="422" y="-285.3" font-family="Times,serif" font-size="14.00">setread</text>
<text text-anchor="start" x="422" y="-268.5" font-family="Times,serif" font-size="14.00">show</text>
<polyline fill="none" stroke="black" points="414,-261.7 616.635,-261.7 "/>
<polyline fill="none" stroke="black" points="414,-237.7 616.635,-237.7 "/>
<text text-anchor="start" x="422" y="-219.7" font-family="Times,serif" font-size="14.00">_layout</text>
<text text-anchor="start" x="422" y="-202.9" font-family="Times,serif" font-size="14.00">_run_process_action_callbacks</text>
<text text-anchor="start" x="422" y="-186.1" font-family="Times,serif" font-size="14.00">authenticate</text>
<text text-anchor="start" x="422" y="-169.3" font-family="Times,serif" font-size="14.00">correct_user</text>
</g>
</g>
</svg>
