<?xml version="1.0" encoding="UTF-8" standalone="no"?>
<!DOCTYPE svg PUBLIC "-//W3C//DTD SVG 1.1//EN"
 "http://www.w3.org/Graphics/SVG/1.1/DTD/svg11.dtd">
<!-- Generated by graphviz version 2.28.0 (20110509.1545)
 -->
<!-- Title: models_diagram Pages: 1 -->
<svg width="2099pt" height="960pt"
 viewBox="0.00 0.00 2099.00 960.00" xmlns="http://www.w3.org/2000/svg" xmlns:xlink="http://www.w3.org/1999/xlink">
<g id="graph1" class="graph" transform="scale(1 1) rotate(0) translate(4 956)">
<title>models_diagram</title>
<polygon fill="white" stroke="white" points="-4,5 -4,-956 2096,-956 2096,5 -4,5"/>
<!-- _diagram_info -->
<g id="node1" class="node"><title>_diagram_info</title>
<text text-anchor="start" x="80.7405" y="-894" font-family="Times,serif" font-size="13.00">Models diagram</text>
<text text-anchor="start" x="80.7405" y="-878.4" font-family="Times,serif" font-size="13.00">Date: Nov 28 2011 &#45; 11:47</text>
<text text-anchor="start" x="80.7405" y="-862.8" font-family="Times,serif" font-size="13.00">Migration version: 20111111183938</text>
<text text-anchor="start" x="80.7405" y="-847.2" font-family="Times,serif" font-size="13.00">Generated by RailRoady 1.0.2</text>
<text text-anchor="start" x="80.7405" y="-831.6" font-family="Times,serif" font-size="13.00">http://railroady.prestonlee.com</text>
</g>
<!-- Action -->
<g id="node2" class="node"><title>Action</title>
<polyline fill="none" stroke="black" points="11.4946,-605.2 120.505,-605.2 "/>
<path fill="none" stroke="black" d="M120.505,-605.2C126.505,-605.2 132.505,-611.2 132.505,-617.2"/>
<polyline fill="none" stroke="black" points="132.505,-617.2 132.505,-726.8 "/>
<path fill="none" stroke="black" d="M132.505,-726.8C132.505,-732.8 126.505,-738.8 120.505,-738.8"/>
<polyline fill="none" stroke="black" points="120.505,-738.8 11.4946,-738.8 "/>
<path fill="none" stroke="black" d="M11.4946,-738.8C5.49463,-738.8 -0.505371,-732.8 -0.505371,-726.8"/>
<polyline fill="none" stroke="black" points="-0.505371,-726.8 -0.505371,-617.2 "/>
<path fill="none" stroke="black" d="M-0.505371,-617.2C-0.505371,-611.2 5.49463,-605.2 11.4946,-605.2"/>
<text text-anchor="middle" x="66" y="-720.8" font-family="Times,serif" font-size="14.00">Action</text>
<polyline fill="none" stroke="black" points="-0.505371,-714 132.505,-714 "/>
<text text-anchor="start" x="7.49463" y="-696" font-family="Times,serif" font-size="14.00">action_type :integer</text>
<text text-anchor="start" x="7.49463" y="-679.2" font-family="Times,serif" font-size="14.00">target_type :string</text>
<text text-anchor="start" x="7.49463" y="-662.4" font-family="Times,serif" font-size="14.00">status :integer</text>
<text text-anchor="start" x="7.49463" y="-645.6" font-family="Times,serif" font-size="14.00">priority :integer</text>
<text text-anchor="start" x="7.49463" y="-628.8" font-family="Times,serif" font-size="14.00">created_at :datetime</text>
<text text-anchor="start" x="7.49463" y="-612" font-family="Times,serif" font-size="14.00">updated_at :datetime</text>
</g>
<!-- ActionObserver -->
<g id="node3" class="node"><title>ActionObserver</title>
<polygon fill="none" stroke="black" points="1572.29,-647.2 1572.29,-696.8 1677.71,-696.8 1677.71,-647.2 1572.29,-647.2"/>
<text text-anchor="middle" x="1625" y="-678.8" font-family="Times,serif" font-size="14.00">ActionObserver</text>
<polyline fill="none" stroke="black" points="1572.29,-672 1677.71,-672 "/>
<text text-anchor="middle" x="1625" y="-654" font-family="Times,serif" font-size="14.00"> </text>
</g>
<!-- Application -->
<g id="node4" class="node"><title>Application</title>
<polyline fill="none" stroke="black" points="1433.49,-630.4 1542.51,-630.4 "/>
<path fill="none" stroke="black" d="M1542.51,-630.4C1548.51,-630.4 1554.51,-636.4 1554.51,-642.4"/>
<polyline fill="none" stroke="black" points="1554.51,-642.4 1554.51,-701.6 "/>
<path fill="none" stroke="black" d="M1554.51,-701.6C1554.51,-707.6 1548.51,-713.6 1542.51,-713.6"/>
<polyline fill="none" stroke="black" points="1542.51,-713.6 1433.49,-713.6 "/>
<path fill="none" stroke="black" d="M1433.49,-713.6C1427.49,-713.6 1421.49,-707.6 1421.49,-701.6"/>
<polyline fill="none" stroke="black" points="1421.49,-701.6 1421.49,-642.4 "/>
<path fill="none" stroke="black" d="M1421.49,-642.4C1421.49,-636.4 1427.49,-630.4 1433.49,-630.4"/>
<text text-anchor="middle" x="1488" y="-695.6" font-family="Times,serif" font-size="14.00">Application</text>
<polyline fill="none" stroke="black" points="1421.49,-688.8 1554.51,-688.8 "/>
<text text-anchor="start" x="1429.49" y="-670.8" font-family="Times,serif" font-size="14.00">name :string</text>
<text text-anchor="start" x="1429.49" y="-654" font-family="Times,serif" font-size="14.00">created_at :datetime</text>
<text text-anchor="start" x="1429.49" y="-637.2" font-family="Times,serif" font-size="14.00">updated_at :datetime</text>
</g>
<!-- Interfacing -->
<g id="node7" class="node"><title>Interfacing</title>
<polyline fill="none" stroke="black" points="1280.49,-204.8 1389.51,-204.8 "/>
<path fill="none" stroke="black" d="M1389.51,-204.8C1395.51,-204.8 1401.51,-210.8 1401.51,-216.8"/>
<polyline fill="none" stroke="black" points="1401.51,-216.8 1401.51,-259.2 "/>
<path fill="none" stroke="black" d="M1401.51,-259.2C1401.51,-265.2 1395.51,-271.2 1389.51,-271.2"/>
<polyline fill="none" stroke="black" points="1389.51,-271.2 1280.49,-271.2 "/>
<path fill="none" stroke="black" d="M1280.49,-271.2C1274.49,-271.2 1268.49,-265.2 1268.49,-259.2"/>
<polyline fill="none" stroke="black" points="1268.49,-259.2 1268.49,-216.8 "/>
<path fill="none" stroke="black" d="M1268.49,-216.8C1268.49,-210.8 1274.49,-204.8 1280.49,-204.8"/>
<text text-anchor="middle" x="1335" y="-253.2" font-family="Times,serif" font-size="14.00">Interfacing</text>
<polyline fill="none" stroke="black" points="1268.49,-246.4 1401.51,-246.4 "/>
<text text-anchor="start" x="1276.49" y="-228.4" font-family="Times,serif" font-size="14.00">created_at :datetime</text>
<text text-anchor="start" x="1276.49" y="-211.6" font-family="Times,serif" font-size="14.00">updated_at :datetime</text>
</g>
<!-- Application&#45;&gt;Interfacing -->
<g id="edge4" class="edge"><title>Application&#45;&gt;Interfacing</title>
<path fill="none" stroke="black" d="M1470.85,-622.584C1440.66,-537.339 1378.51,-361.866 1349.95,-281.224"/>
<ellipse fill="none" stroke="black" cx="1472.27" cy="-626.588" rx="4.00001" ry="4.00001"/>
<polygon fill="black" stroke="black" points="1349.82,-280.838 1350.72,-269.91 1348.15,-276.125 1346.48,-271.412 1346.48,-271.412 1346.48,-271.412 1348.15,-276.125 1342.24,-272.915 1349.82,-280.838 1349.82,-280.838"/>
</g>
<!-- Project -->
<g id="node19" class="node"><title>Project</title>
<polyline fill="none" stroke="black" points="871.495,-358.6 994.505,-358.6 "/>
<path fill="none" stroke="black" d="M994.505,-358.6C1000.51,-358.6 1006.51,-364.6 1006.51,-370.6"/>
<polyline fill="none" stroke="black" points="1006.51,-370.6 1006.51,-547.4 "/>
<path fill="none" stroke="black" d="M1006.51,-547.4C1006.51,-553.4 1000.51,-559.4 994.505,-559.4"/>
<polyline fill="none" stroke="black" points="994.505,-559.4 871.495,-559.4 "/>
<path fill="none" stroke="black" d="M871.495,-559.4C865.495,-559.4 859.495,-553.4 859.495,-547.4"/>
<polyline fill="none" stroke="black" points="859.495,-547.4 859.495,-370.6 "/>
<path fill="none" stroke="black" d="M859.495,-370.6C859.495,-364.6 865.495,-358.6 871.495,-358.6"/>
<text text-anchor="middle" x="933" y="-541.4" font-family="Times,serif" font-size="14.00">Project</text>
<polyline fill="none" stroke="black" points="859.495,-534.6 1006.51,-534.6 "/>
<text text-anchor="start" x="867.495" y="-516.6" font-family="Times,serif" font-size="14.00">title :string</text>
<text text-anchor="start" x="867.495" y="-499.8" font-family="Times,serif" font-size="14.00">created_at :datetime</text>
<text text-anchor="start" x="867.495" y="-483" font-family="Times,serif" font-size="14.00">updated_at :datetime</text>
<text text-anchor="start" x="867.495" y="-466.2" font-family="Times,serif" font-size="14.00">objective :text</text>
<text text-anchor="start" x="867.495" y="-449.4" font-family="Times,serif" font-size="14.00">func_skills :string</text>
<text text-anchor="start" x="867.495" y="-432.6" font-family="Times,serif" font-size="14.00">start_date :datetime</text>
<text text-anchor="start" x="867.495" y="-415.8" font-family="Times,serif" font-size="14.00">deliv_date :datetime</text>
<text text-anchor="start" x="867.495" y="-399" font-family="Times,serif" font-size="14.00">estimated_load :integer</text>
<text text-anchor="start" x="867.495" y="-382.2" font-family="Times,serif" font-size="14.00">specfile :string</text>
<text text-anchor="start" x="867.495" y="-365.4" font-family="Times,serif" font-size="14.00">status :integer</text>
</g>
<!-- Application&#45;&gt;Project -->
<g id="edge6" class="edge"><title>Application&#45;&gt;Project</title>
<path fill="none" stroke="black" d="M1446.68,-622.913C1436.2,-612.899 1424.37,-603.211 1412,-596 1285.46,-522.245 1116.6,-486.546 1016.87,-470.836"/>
<polygon fill="black" stroke="black" points="1446.96,-623.192 1450.9,-633.428 1450.51,-626.712 1454.06,-630.232 1454.06,-630.232 1454.06,-630.232 1450.51,-626.712 1457.23,-627.036 1446.96,-623.192 1446.96,-623.192"/>
<polygon fill="black" stroke="black" points="1016.72,-470.814 1007.53,-464.84 1011.78,-470.05 1006.84,-469.287 1006.84,-469.287 1006.84,-469.287 1011.78,-470.05 1006.15,-473.734 1016.72,-470.814 1016.72,-470.814"/>
</g>
<!-- Authentication -->
<g id="node5" class="node"><title>Authentication</title>
<polyline fill="none" stroke="black" points="162.495,-622 271.505,-622 "/>
<path fill="none" stroke="black" d="M271.505,-622C277.505,-622 283.505,-628 283.505,-634"/>
<polyline fill="none" stroke="black" points="283.505,-634 283.505,-710 "/>
<path fill="none" stroke="black" d="M283.505,-710C283.505,-716 277.505,-722 271.505,-722"/>
<polyline fill="none" stroke="black" points="271.505,-722 162.495,-722 "/>
<path fill="none" stroke="black" d="M162.495,-722C156.495,-722 150.495,-716 150.495,-710"/>
<polyline fill="none" stroke="black" points="150.495,-710 150.495,-634 "/>
<path fill="none" stroke="black" d="M150.495,-634C150.495,-628 156.495,-622 162.495,-622"/>
<text text-anchor="middle" x="217" y="-704" font-family="Times,serif" font-size="14.00">Authentication</text>
<polyline fill="none" stroke="black" points="150.495,-697.2 283.505,-697.2 "/>
<text text-anchor="start" x="158.495" y="-679.2" font-family="Times,serif" font-size="14.00">provider :string</text>
<text text-anchor="start" x="158.495" y="-662.4" font-family="Times,serif" font-size="14.00">uid :string</text>
<text text-anchor="start" x="158.495" y="-645.6" font-family="Times,serif" font-size="14.00">created_at :datetime</text>
<text text-anchor="start" x="158.495" y="-628.8" font-family="Times,serif" font-size="14.00">updated_at :datetime</text>
</g>
<!-- Development -->
<g id="node6" class="node"><title>Development</title>
<polyline fill="none" stroke="black" points="736.495,-204.8 845.505,-204.8 "/>
<path fill="none" stroke="black" d="M845.505,-204.8C851.505,-204.8 857.505,-210.8 857.505,-216.8"/>
<polyline fill="none" stroke="black" points="857.505,-216.8 857.505,-259.2 "/>
<path fill="none" stroke="black" d="M857.505,-259.2C857.505,-265.2 851.505,-271.2 845.505,-271.2"/>
<polyline fill="none" stroke="black" points="845.505,-271.2 736.495,-271.2 "/>
<path fill="none" stroke="black" d="M736.495,-271.2C730.495,-271.2 724.495,-265.2 724.495,-259.2"/>
<polyline fill="none" stroke="black" points="724.495,-259.2 724.495,-216.8 "/>
<path fill="none" stroke="black" d="M724.495,-216.8C724.495,-210.8 730.495,-204.8 736.495,-204.8"/>
<text text-anchor="middle" x="791" y="-253.2" font-family="Times,serif" font-size="14.00">Development</text>
<polyline fill="none" stroke="black" points="724.495,-246.4 857.505,-246.4 "/>
<text text-anchor="start" x="732.495" y="-228.4" font-family="Times,serif" font-size="14.00">created_at :datetime</text>
<text text-anchor="start" x="732.495" y="-211.6" font-family="Times,serif" font-size="14.00">updated_at :datetime</text>
</g>
<!-- Milestone -->
<g id="node8" class="node"><title>Milestone</title>
<polyline fill="none" stroke="black" points="954.495,-0.6 1063.51,-0.6 "/>
<path fill="none" stroke="black" d="M1063.51,-0.6C1069.51,-0.6 1075.51,-6.6 1075.51,-12.6"/>
<polyline fill="none" stroke="black" points="1075.51,-12.6 1075.51,-105.4 "/>
<path fill="none" stroke="black" d="M1075.51,-105.4C1075.51,-111.4 1069.51,-117.4 1063.51,-117.4"/>
<polyline fill="none" stroke="black" points="1063.51,-117.4 954.495,-117.4 "/>
<path fill="none" stroke="black" d="M954.495,-117.4C948.495,-117.4 942.495,-111.4 942.495,-105.4"/>
<polyline fill="none" stroke="black" points="942.495,-105.4 942.495,-12.6 "/>
<path fill="none" stroke="black" d="M942.495,-12.6C942.495,-6.6 948.495,-0.6 954.495,-0.6"/>
<text text-anchor="middle" x="1009" y="-99.4" font-family="Times,serif" font-size="14.00">Milestone</text>
<polyline fill="none" stroke="black" points="942.495,-92.6 1075.51,-92.6 "/>
<text text-anchor="start" x="950.495" y="-74.6" font-family="Times,serif" font-size="14.00">date :string</text>
<text text-anchor="start" x="950.495" y="-57.8" font-family="Times,serif" font-size="14.00">name :string</text>
<text text-anchor="start" x="950.495" y="-41" font-family="Times,serif" font-size="14.00">status :string</text>
<text text-anchor="start" x="950.495" y="-24.2" font-family="Times,serif" font-size="14.00">created_at :datetime</text>
<text text-anchor="start" x="950.495" y="-7.4" font-family="Times,serif" font-size="14.00">updated_at :datetime</text>
</g>
<!-- Notification -->
<g id="node9" class="node"><title>Notification</title>
<polyline fill="none" stroke="black" points="313.433,-613.6 446.567,-613.6 "/>
<path fill="none" stroke="black" d="M446.567,-613.6C452.567,-613.6 458.567,-619.6 458.567,-625.6"/>
<polyline fill="none" stroke="black" points="458.567,-625.6 458.567,-718.4 "/>
<path fill="none" stroke="black" d="M458.567,-718.4C458.567,-724.4 452.567,-730.4 446.567,-730.4"/>
<polyline fill="none" stroke="black" points="446.567,-730.4 313.433,-730.4 "/>
<path fill="none" stroke="black" d="M313.433,-730.4C307.433,-730.4 301.433,-724.4 301.433,-718.4"/>
<polyline fill="none" stroke="black" points="301.433,-718.4 301.433,-625.6 "/>
<path fill="none" stroke="black" d="M301.433,-625.6C301.433,-619.6 307.433,-613.6 313.433,-613.6"/>
<text text-anchor="middle" x="380" y="-712.4" font-family="Times,serif" font-size="14.00">Notification</text>
<polyline fill="none" stroke="black" points="301.433,-705.6 458.567,-705.6 "/>
<text text-anchor="start" x="309.433" y="-687.6" font-family="Times,serif" font-size="14.00">notification_type :integer</text>
<text text-anchor="start" x="309.433" y="-670.8" font-family="Times,serif" font-size="14.00">target_type :string</text>
<text text-anchor="start" x="309.433" y="-654" font-family="Times,serif" font-size="14.00">created_at :datetime</text>
<text text-anchor="start" x="309.433" y="-637.2" font-family="Times,serif" font-size="14.00">updated_at :datetime</text>
<text text-anchor="start" x="309.433" y="-620.4" font-family="Times,serif" font-size="14.00">is_read :boolean</text>
</g>
<!-- Offer -->
<g id="node10" class="node"><title>Offer</title>
<polyline fill="none" stroke="black" points="488.495,-596.8 597.505,-596.8 "/>
<path fill="none" stroke="black" d="M597.505,-596.8C603.505,-596.8 609.505,-602.8 609.505,-608.8"/>
<polyline fill="none" stroke="black" points="609.505,-608.8 609.505,-735.2 "/>
<path fill="none" stroke="black" d="M609.505,-735.2C609.505,-741.2 603.505,-747.2 597.505,-747.2"/>
<polyline fill="none" stroke="black" points="597.505,-747.2 488.495,-747.2 "/>
<path fill="none" stroke="black" d="M488.495,-747.2C482.495,-747.2 476.495,-741.2 476.495,-735.2"/>
<polyline fill="none" stroke="black" points="476.495,-735.2 476.495,-608.8 "/>
<path fill="none" stroke="black" d="M476.495,-608.8C476.495,-602.8 482.495,-596.8 488.495,-596.8"/>
<text text-anchor="middle" x="543" y="-729.2" font-family="Times,serif" font-size="14.00">Offer</text>
<polyline fill="none" stroke="black" points="476.495,-722.4 609.505,-722.4 "/>
<text text-anchor="start" x="484.495" y="-704.4" font-family="Times,serif" font-size="14.00">start_date :datetime</text>
<text text-anchor="start" x="484.495" y="-687.6" font-family="Times,serif" font-size="14.00">end_date :datetime</text>
<text text-anchor="start" x="484.495" y="-670.8" font-family="Times,serif" font-size="14.00">nb_days :integer</text>
<text text-anchor="start" x="484.495" y="-654" font-family="Times,serif" font-size="14.00">message :text</text>
<text text-anchor="start" x="484.495" y="-637.2" font-family="Times,serif" font-size="14.00">created_at :datetime</text>
<text text-anchor="start" x="484.495" y="-620.4" font-family="Times,serif" font-size="14.00">updated_at :datetime</text>
<text text-anchor="start" x="484.495" y="-603.6" font-family="Times,serif" font-size="14.00">amount :integer</text>
</g>
<!-- Offer&#45;&gt;Project -->
<g id="edge8" class="edge"><title>Offer&#45;&gt;Project</title>
<path fill="none" stroke="black" d="M616.553,-595.146C694.795,-544.976 786.638,-507.556 851.517,-484.787"/>
<ellipse fill="none" stroke="black" cx="613.077" cy="-597.403" rx="4.00002" ry="4.00002"/>
<ellipse fill="black" stroke="black" cx="855.515" cy="-483.397" rx="4.00001" ry="4.00001"/>
</g>
<!-- OfferObserver -->
<g id="node11" class="node"><title>OfferObserver</title>
<polygon fill="none" stroke="black" points="1695.31,-647.2 1695.31,-696.8 1792.69,-696.8 1792.69,-647.2 1695.31,-647.2"/>
<text text-anchor="middle" x="1744" y="-678.8" font-family="Times,serif" font-size="14.00">OfferObserver</text>
<polyline fill="none" stroke="black" points="1695.31,-672 1792.69,-672 "/>
<text text-anchor="middle" x="1744" y="-654" font-family="Times,serif" font-size="14.00"> </text>
</g>
<!-- PrArch -->
<g id="node12" class="node"><title>PrArch</title>
<polyline fill="none" stroke="black" points="678.495,-630.4 787.505,-630.4 "/>
<path fill="none" stroke="black" d="M787.505,-630.4C793.505,-630.4 799.505,-636.4 799.505,-642.4"/>
<polyline fill="none" stroke="black" points="799.505,-642.4 799.505,-701.6 "/>
<path fill="none" stroke="black" d="M799.505,-701.6C799.505,-707.6 793.505,-713.6 787.505,-713.6"/>
<polyline fill="none" stroke="black" points="787.505,-713.6 678.495,-713.6 "/>
<path fill="none" stroke="black" d="M678.495,-713.6C672.495,-713.6 666.495,-707.6 666.495,-701.6"/>
<polyline fill="none" stroke="black" points="666.495,-701.6 666.495,-642.4 "/>
<path fill="none" stroke="black" d="M666.495,-642.4C666.495,-636.4 672.495,-630.4 678.495,-630.4"/>
<text text-anchor="middle" x="733" y="-695.6" font-family="Times,serif" font-size="14.00">PrArch</text>
<polyline fill="none" stroke="black" points="666.495,-688.8 799.505,-688.8 "/>
<text text-anchor="start" x="674.495" y="-670.8" font-family="Times,serif" font-size="14.00">arch :string</text>
<text text-anchor="start" x="674.495" y="-654" font-family="Times,serif" font-size="14.00">created_at :datetime</text>
<text text-anchor="start" x="674.495" y="-637.2" font-family="Times,serif" font-size="14.00">updated_at :datetime</text>
</g>
<!-- PrArch&#45;&gt;Project -->
<g id="edge12" class="edge"><title>PrArch&#45;&gt;Project</title>
<path fill="none" stroke="black" d="M777.229,-624.338C799.72,-600.61 827.745,-571.044 853.799,-543.557"/>
<ellipse fill="none" stroke="black" cx="774.314" cy="-627.414" rx="4.00002" ry="4.00002"/>
<ellipse fill="black" stroke="black" cx="856.574" cy="-540.629" rx="4.00002" ry="4.00002"/>
</g>
<!-- PrNbUser -->
<g id="node13" class="node"><title>PrNbUser</title>
<polyline fill="none" stroke="black" points="829.495,-630.4 938.505,-630.4 "/>
<path fill="none" stroke="black" d="M938.505,-630.4C944.505,-630.4 950.505,-636.4 950.505,-642.4"/>
<polyline fill="none" stroke="black" points="950.505,-642.4 950.505,-701.6 "/>
<path fill="none" stroke="black" d="M950.505,-701.6C950.505,-707.6 944.505,-713.6 938.505,-713.6"/>
<polyline fill="none" stroke="black" points="938.505,-713.6 829.495,-713.6 "/>
<path fill="none" stroke="black" d="M829.495,-713.6C823.495,-713.6 817.495,-707.6 817.495,-701.6"/>
<polyline fill="none" stroke="black" points="817.495,-701.6 817.495,-642.4 "/>
<path fill="none" stroke="black" d="M817.495,-642.4C817.495,-636.4 823.495,-630.4 829.495,-630.4"/>
<text text-anchor="middle" x="884" y="-695.6" font-family="Times,serif" font-size="14.00">PrNbUser</text>
<polyline fill="none" stroke="black" points="817.495,-688.8 950.505,-688.8 "/>
<text text-anchor="start" x="825.495" y="-670.8" font-family="Times,serif" font-size="14.00">number :string</text>
<text text-anchor="start" x="825.495" y="-654" font-family="Times,serif" font-size="14.00">created_at :datetime</text>
<text text-anchor="start" x="825.495" y="-637.2" font-family="Times,serif" font-size="14.00">updated_at :datetime</text>
</g>
<!-- PrNbUser&#45;&gt;Project -->
<g id="edge14" class="edge"><title>PrNbUser&#45;&gt;Project</title>
<path fill="none" stroke="black" d="M895.264,-622.495C899.095,-606 903.542,-586.848 908.012,-567.603"/>
<ellipse fill="none" stroke="black" cx="894.353" cy="-626.421" rx="4.00001" ry="4.00001"/>
<ellipse fill="black" stroke="black" cx="908.954" cy="-563.546" rx="4.00001" ry="4.00001"/>
</g>
<!-- PrProcessTime -->
<g id="node14" class="node"><title>PrProcessTime</title>
<polyline fill="none" stroke="black" points="980.495,-630.4 1089.51,-630.4 "/>
<path fill="none" stroke="black" d="M1089.51,-630.4C1095.51,-630.4 1101.51,-636.4 1101.51,-642.4"/>
<polyline fill="none" stroke="black" points="1101.51,-642.4 1101.51,-701.6 "/>
<path fill="none" stroke="black" d="M1101.51,-701.6C1101.51,-707.6 1095.51,-713.6 1089.51,-713.6"/>
<polyline fill="none" stroke="black" points="1089.51,-713.6 980.495,-713.6 "/>
<path fill="none" stroke="black" d="M980.495,-713.6C974.495,-713.6 968.495,-707.6 968.495,-701.6"/>
<polyline fill="none" stroke="black" points="968.495,-701.6 968.495,-642.4 "/>
<path fill="none" stroke="black" d="M968.495,-642.4C968.495,-636.4 974.495,-630.4 980.495,-630.4"/>
<text text-anchor="middle" x="1035" y="-695.6" font-family="Times,serif" font-size="14.00">PrProcessTime</text>
<polyline fill="none" stroke="black" points="968.495,-688.8 1101.51,-688.8 "/>
<text text-anchor="start" x="976.495" y="-670.8" font-family="Times,serif" font-size="14.00">time :string</text>
<text text-anchor="start" x="976.495" y="-654" font-family="Times,serif" font-size="14.00">created_at :datetime</text>
<text text-anchor="start" x="976.495" y="-637.2" font-family="Times,serif" font-size="14.00">updated_at :datetime</text>
</g>
<!-- PrProcessTime&#45;&gt;Project -->
<g id="edge16" class="edge"><title>PrProcessTime&#45;&gt;Project</title>
<path fill="none" stroke="black" d="M1011.79,-622.997C1003.67,-606.188 994.188,-586.575 984.675,-566.897"/>
<ellipse fill="none" stroke="black" cx="1013.59" cy="-626.716" rx="4.00002" ry="4.00002"/>
<ellipse fill="black" stroke="black" cx="982.913" cy="-563.251" rx="4.00002" ry="4.00002"/>
</g>
<!-- PrProjectType -->
<g id="node15" class="node"><title>PrProjectType</title>
<polyline fill="none" stroke="black" points="1131.49,-622 1240.51,-622 "/>
<path fill="none" stroke="black" d="M1240.51,-622C1246.51,-622 1252.51,-628 1252.51,-634"/>
<polyline fill="none" stroke="black" points="1252.51,-634 1252.51,-710 "/>
<path fill="none" stroke="black" d="M1252.51,-710C1252.51,-716 1246.51,-722 1240.51,-722"/>
<polyline fill="none" stroke="black" points="1240.51,-722 1131.49,-722 "/>
<path fill="none" stroke="black" d="M1131.49,-722C1125.49,-722 1119.49,-716 1119.49,-710"/>
<polyline fill="none" stroke="black" points="1119.49,-710 1119.49,-634 "/>
<path fill="none" stroke="black" d="M1119.49,-634C1119.49,-628 1125.49,-622 1131.49,-622"/>
<text text-anchor="middle" x="1186" y="-704" font-family="Times,serif" font-size="14.00">PrProjectType</text>
<polyline fill="none" stroke="black" points="1119.49,-697.2 1252.51,-697.2 "/>
<text text-anchor="start" x="1127.49" y="-679.2" font-family="Times,serif" font-size="14.00">ptype :string</text>
<text text-anchor="start" x="1127.49" y="-662.4" font-family="Times,serif" font-size="14.00">created_at :datetime</text>
<text text-anchor="start" x="1127.49" y="-645.6" font-family="Times,serif" font-size="14.00">updated_at :datetime</text>
<text text-anchor="start" x="1127.49" y="-628.8" font-family="Times,serif" font-size="14.00">image_path :string</text>
</g>
<!-- PrProjectType&#45;&gt;Project -->
<g id="edge18" class="edge"><title>PrProjectType&#45;&gt;Project</title>
<path fill="none" stroke="black" d="M1131.79,-615.919C1124.59,-609.074 1117.21,-602.281 1110,-596 1079.32,-569.255 1044.02,-541.564 1013.06,-518.204"/>
<ellipse fill="none" stroke="black" cx="1134.9" cy="-618.902" rx="4.00002" ry="4.00002"/>
<ellipse fill="black" stroke="black" cx="1009.72" cy="-515.691" rx="4.00002" ry="4.00002"/>
</g>
<!-- PrUsageFreq -->
<g id="node16" class="node"><title>PrUsageFreq</title>
<polyline fill="none" stroke="black" points="1282.49,-630.4 1391.51,-630.4 "/>
<path fill="none" stroke="black" d="M1391.51,-630.4C1397.51,-630.4 1403.51,-636.4 1403.51,-642.4"/>
<polyline fill="none" stroke="black" points="1403.51,-642.4 1403.51,-701.6 "/>
<path fill="none" stroke="black" d="M1403.51,-701.6C1403.51,-707.6 1397.51,-713.6 1391.51,-713.6"/>
<polyline fill="none" stroke="black" points="1391.51,-713.6 1282.49,-713.6 "/>
<path fill="none" stroke="black" d="M1282.49,-713.6C1276.49,-713.6 1270.49,-707.6 1270.49,-701.6"/>
<polyline fill="none" stroke="black" points="1270.49,-701.6 1270.49,-642.4 "/>
<path fill="none" stroke="black" d="M1270.49,-642.4C1270.49,-636.4 1276.49,-630.4 1282.49,-630.4"/>
<text text-anchor="middle" x="1337" y="-695.6" font-family="Times,serif" font-size="14.00">PrUsageFreq</text>
<polyline fill="none" stroke="black" points="1270.49,-688.8 1403.51,-688.8 "/>
<text text-anchor="start" x="1278.49" y="-670.8" font-family="Times,serif" font-size="14.00">freq :string</text>
<text text-anchor="start" x="1278.49" y="-654" font-family="Times,serif" font-size="14.00">created_at :datetime</text>
<text text-anchor="start" x="1278.49" y="-637.2" font-family="Times,serif" font-size="14.00">updated_at :datetime</text>
</g>
<!-- PrUsageFreq&#45;&gt;Project -->
<g id="edge20" class="edge"><title>PrUsageFreq&#45;&gt;Project</title>
<path fill="none" stroke="black" d="M1295.53,-624.424C1284.95,-614.202 1273.12,-604.043 1261,-596 1183.6,-544.632 1083.67,-506.615 1014.55,-484.03"/>
<ellipse fill="none" stroke="black" cx="1298.43" cy="-627.286" rx="4.00002" ry="4.00002"/>
<ellipse fill="black" stroke="black" cx="1010.51" cy="-482.72" rx="4.00001" ry="4.00001"/>
</g>
<!-- Profile -->
<g id="node17" class="node"><title>Profile</title>
<polyline fill="none" stroke="black" points="1819.49,-809.6 1928.51,-809.6 "/>
<path fill="none" stroke="black" d="M1928.51,-809.6C1934.51,-809.6 1940.51,-815.6 1940.51,-821.6"/>
<polyline fill="none" stroke="black" points="1940.51,-821.6 1940.51,-914.4 "/>
<path fill="none" stroke="black" d="M1940.51,-914.4C1940.51,-920.4 1934.51,-926.4 1928.51,-926.4"/>
<polyline fill="none" stroke="black" points="1928.51,-926.4 1819.49,-926.4 "/>
<path fill="none" stroke="black" d="M1819.49,-926.4C1813.49,-926.4 1807.49,-920.4 1807.49,-914.4"/>
<polyline fill="none" stroke="black" points="1807.49,-914.4 1807.49,-821.6 "/>
<path fill="none" stroke="black" d="M1807.49,-821.6C1807.49,-815.6 1813.49,-809.6 1819.49,-809.6"/>
<text text-anchor="middle" x="1874" y="-908.4" font-family="Times,serif" font-size="14.00">Profile</text>
<polyline fill="none" stroke="black" points="1807.49,-901.6 1940.51,-901.6 "/>
<text text-anchor="start" x="1815.49" y="-883.6" font-family="Times,serif" font-size="14.00">country :string</text>
<text text-anchor="start" x="1815.49" y="-866.8" font-family="Times,serif" font-size="14.00">overview :string</text>
<text text-anchor="start" x="1815.49" y="-850" font-family="Times,serif" font-size="14.00">skills :string</text>
<text text-anchor="start" x="1815.49" y="-833.2" font-family="Times,serif" font-size="14.00">created_at :datetime</text>
<text text-anchor="start" x="1815.49" y="-816.4" font-family="Times,serif" font-size="14.00">updated_at :datetime</text>
</g>
<!-- ProgLang -->
<g id="node18" class="node"><title>ProgLang</title>
<polyline fill="none" stroke="black" points="926.495,-196.4 1035.51,-196.4 "/>
<path fill="none" stroke="black" d="M1035.51,-196.4C1041.51,-196.4 1047.51,-202.4 1047.51,-208.4"/>
<polyline fill="none" stroke="black" points="1047.51,-208.4 1047.51,-267.6 "/>
<path fill="none" stroke="black" d="M1047.51,-267.6C1047.51,-273.6 1041.51,-279.6 1035.51,-279.6"/>
<polyline fill="none" stroke="black" points="1035.51,-279.6 926.495,-279.6 "/>
<path fill="none" stroke="black" d="M926.495,-279.6C920.495,-279.6 914.495,-273.6 914.495,-267.6"/>
<polyline fill="none" stroke="black" points="914.495,-267.6 914.495,-208.4 "/>
<path fill="none" stroke="black" d="M914.495,-208.4C914.495,-202.4 920.495,-196.4 926.495,-196.4"/>
<text text-anchor="middle" x="981" y="-261.6" font-family="Times,serif" font-size="14.00">ProgLang</text>
<polyline fill="none" stroke="black" points="914.495,-254.8 1047.51,-254.8 "/>
<text text-anchor="start" x="922.495" y="-236.8" font-family="Times,serif" font-size="14.00">name :string</text>
<text text-anchor="start" x="922.495" y="-220" font-family="Times,serif" font-size="14.00">created_at :datetime</text>
<text text-anchor="start" x="922.495" y="-203.2" font-family="Times,serif" font-size="14.00">updated_at :datetime</text>
</g>
<!-- Project&#45;&gt;Development -->
<g id="edge24" class="edge"><title>Project&#45;&gt;Development</title>
<path fill="none" stroke="black" d="M863.896,-351.425C847.342,-325.894 830.65,-300.151 817.424,-279.752"/>
<ellipse fill="none" stroke="black" cx="866.264" cy="-355.076" rx="4.00002" ry="4.00002"/>
<polygon fill="black" stroke="black" points="817.419,-279.744 815.754,-268.906 814.698,-275.549 811.978,-271.354 811.978,-271.354 811.978,-271.354 814.698,-275.549 808.202,-273.802 817.419,-279.744 817.419,-279.744"/>
</g>
<!-- Project&#45;&gt;Interfacing -->
<g id="edge22" class="edge"><title>Project&#45;&gt;Interfacing</title>
<path fill="none" stroke="black" d="M1013.91,-420.839C1069.14,-394.746 1143.52,-358.176 1207,-322 1231.28,-308.165 1257.28,-291.638 1279.47,-276.986"/>
<ellipse fill="none" stroke="black" cx="1010.2" cy="-422.585" rx="4.00002" ry="4.00002"/>
<polygon fill="black" stroke="black" points="1279.76,-276.794 1290.58,-275.01 1283.92,-274.028 1288.09,-271.261 1288.09,-271.261 1288.09,-271.261 1283.92,-274.028 1285.6,-267.513 1279.76,-276.794 1279.76,-276.794"/>
</g>
<!-- Project&#45;&gt;Milestone -->
<g id="edge32" class="edge"><title>Project&#45;&gt;Milestone</title>
<path fill="none" stroke="black" d="M897.885,-350.465C884.313,-290.303 877.773,-215.308 905,-154 911.936,-138.381 922.892,-124.258 935.14,-111.986"/>
<ellipse fill="none" stroke="black" cx="898.845" cy="-354.58" rx="4.00001" ry="4.00001"/>
<polygon fill="black" stroke="black" points="935.248,-111.883 945.588,-108.231 938.864,-108.43 942.48,-104.977 942.48,-104.977 942.48,-104.977 938.864,-108.43 939.373,-101.722 935.248,-111.883 935.248,-111.883"/>
</g>
<!-- Project&#45;&gt;Offer -->
<g id="edge28" class="edge"><title>Project&#45;&gt;Offer</title>
<path fill="none" stroke="black" d="M851.941,-489.974C789.426,-513.745 702.336,-550.495 633,-596 627.848,-599.381 622.712,-603.097 617.652,-607.009"/>
<ellipse fill="none" stroke="black" cx="855.699" cy="-488.553" rx="4.00001" ry="4.00001"/>
<polygon fill="black" stroke="black" points="617.587,-607.06 606.964,-609.781 613.679,-610.179 609.771,-613.298 609.771,-613.298 609.771,-613.298 613.679,-610.179 612.578,-616.815 617.587,-607.06 617.587,-607.06"/>
</g>
<!-- Project&#45;&gt;ProgLang -->
<g id="edge26" class="edge"><title>Project&#45;&gt;ProgLang</title>
<path fill="none" stroke="black" d="M956.97,-348.637C961.483,-328.048 965.996,-307.454 969.874,-289.764"/>
<polygon fill="black" stroke="black" points="956.964,-348.665 950.427,-357.469 955.893,-353.549 954.823,-358.433 954.823,-358.433 954.823,-358.433 955.893,-353.549 959.219,-359.396 956.964,-348.665 956.964,-348.665"/>
<polygon fill="black" stroke="black" points="969.937,-289.474 976.474,-280.669 971.008,-284.59 972.078,-279.706 972.078,-279.706 972.078,-279.706 971.008,-284.59 967.682,-278.743 969.937,-289.474 969.937,-289.474"/>
</g>
<!-- Task -->
<g id="node21" class="node"><title>Task</title>
<polyline fill="none" stroke="black" points="1077.49,-154.4 1186.51,-154.4 "/>
<path fill="none" stroke="black" d="M1186.51,-154.4C1192.51,-154.4 1198.51,-160.4 1198.51,-166.4"/>
<polyline fill="none" stroke="black" points="1198.51,-166.4 1198.51,-309.6 "/>
<path fill="none" stroke="black" d="M1198.51,-309.6C1198.51,-315.6 1192.51,-321.6 1186.51,-321.6"/>
<polyline fill="none" stroke="black" points="1186.51,-321.6 1077.49,-321.6 "/>
<path fill="none" stroke="black" d="M1077.49,-321.6C1071.49,-321.6 1065.49,-315.6 1065.49,-309.6"/>
<polyline fill="none" stroke="black" points="1065.49,-309.6 1065.49,-166.4 "/>
<path fill="none" stroke="black" d="M1065.49,-166.4C1065.49,-160.4 1071.49,-154.4 1077.49,-154.4"/>
<text text-anchor="middle" x="1132" y="-303.6" font-family="Times,serif" font-size="14.00">Task</text>
<polyline fill="none" stroke="black" points="1065.49,-296.8 1198.51,-296.8 "/>
<text text-anchor="start" x="1073.49" y="-278.8" font-family="Times,serif" font-size="14.00">start_date :datetime</text>
<text text-anchor="start" x="1073.49" y="-262" font-family="Times,serif" font-size="14.00">end_date :datetime</text>
<text text-anchor="start" x="1073.49" y="-245.2" font-family="Times,serif" font-size="14.00">nb_days :integer</text>
<text text-anchor="start" x="1073.49" y="-228.4" font-family="Times,serif" font-size="14.00">name :string</text>
<text text-anchor="start" x="1073.49" y="-211.6" font-family="Times,serif" font-size="14.00">status :string</text>
<text text-anchor="start" x="1073.49" y="-194.8" font-family="Times,serif" font-size="14.00">progress :integer</text>
<text text-anchor="start" x="1073.49" y="-178" font-family="Times,serif" font-size="14.00">created_at :datetime</text>
<text text-anchor="start" x="1073.49" y="-161.2" font-family="Times,serif" font-size="14.00">updated_at :datetime</text>
</g>
<!-- Project&#45;&gt;Task -->
<g id="edge30" class="edge"><title>Project&#45;&gt;Task</title>
<path fill="none" stroke="black" d="M1011.99,-371.074C1027.31,-354.21 1043.31,-336.599 1058.45,-319.937"/>
<ellipse fill="none" stroke="black" cx="1009.22" cy="-374.114" rx="4.00002" ry="4.00002"/>
<polygon fill="black" stroke="black" points="1058.62,-319.755 1068.68,-315.381 1061.98,-316.055 1065.34,-312.354 1065.34,-312.354 1065.34,-312.354 1061.98,-316.055 1062.01,-309.328 1058.62,-319.755 1058.62,-319.755"/>
</g>
<!-- Specfile -->
<g id="node20" class="node"><title>Specfile</title>
<polyline fill="none" stroke="black" points="1970.49,-826.4 2079.51,-826.4 "/>
<path fill="none" stroke="black" d="M2079.51,-826.4C2085.51,-826.4 2091.51,-832.4 2091.51,-838.4"/>
<polyline fill="none" stroke="black" points="2091.51,-838.4 2091.51,-897.6 "/>
<path fill="none" stroke="black" d="M2091.51,-897.6C2091.51,-903.6 2085.51,-909.6 2079.51,-909.6"/>
<polyline fill="none" stroke="black" points="2079.51,-909.6 1970.49,-909.6 "/>
<path fill="none" stroke="black" d="M1970.49,-909.6C1964.49,-909.6 1958.49,-903.6 1958.49,-897.6"/>
<polyline fill="none" stroke="black" points="1958.49,-897.6 1958.49,-838.4 "/>
<path fill="none" stroke="black" d="M1958.49,-838.4C1958.49,-832.4 1964.49,-826.4 1970.49,-826.4"/>
<text text-anchor="middle" x="2025" y="-891.6" font-family="Times,serif" font-size="14.00">Specfile</text>
<polyline fill="none" stroke="black" points="1958.49,-884.8 2091.51,-884.8 "/>
<text text-anchor="start" x="1966.49" y="-866.8" font-family="Times,serif" font-size="14.00">file :string</text>
<text text-anchor="start" x="1966.49" y="-850" font-family="Times,serif" font-size="14.00">created_at :datetime</text>
<text text-anchor="start" x="1966.49" y="-833.2" font-family="Times,serif" font-size="14.00">updated_at :datetime</text>
</g>
<!-- Task&#45;&gt;Milestone -->
<g id="edge34" class="edge"><title>Task&#45;&gt;Milestone</title>
<path fill="none" stroke="black" d="M1069.8,-147.499C1064.38,-139.687 1058.95,-131.885 1053.71,-124.337"/>
<ellipse fill="none" stroke="black" cx="1072.18" cy="-150.916" rx="4.00002" ry="4.00002"/>
<ellipse fill="black" stroke="black" cx="1051.23" cy="-120.769" rx="4.00002" ry="4.00002"/>
</g>
<!-- User -->
<g id="node22" class="node"><title>User</title>
<polyline fill="none" stroke="black" points="306.822,-784.4 453.178,-784.4 "/>
<path fill="none" stroke="black" d="M453.178,-784.4C459.178,-784.4 465.178,-790.4 465.178,-796.4"/>
<polyline fill="none" stroke="black" points="465.178,-796.4 465.178,-939.6 "/>
<path fill="none" stroke="black" d="M465.178,-939.6C465.178,-945.6 459.178,-951.6 453.178,-951.6"/>
<polyline fill="none" stroke="black" points="453.178,-951.6 306.822,-951.6 "/>
<path fill="none" stroke="black" d="M306.822,-951.6C300.822,-951.6 294.822,-945.6 294.822,-939.6"/>
<polyline fill="none" stroke="black" points="294.822,-939.6 294.822,-796.4 "/>
<path fill="none" stroke="black" d="M294.822,-796.4C294.822,-790.4 300.822,-784.4 306.822,-784.4"/>
<text text-anchor="middle" x="380" y="-933.6" font-family="Times,serif" font-size="14.00">User</text>
<polyline fill="none" stroke="black" points="294.822,-926.8 465.178,-926.8 "/>
<text text-anchor="start" x="302.822" y="-908.8" font-family="Times,serif" font-size="14.00">login :string</text>
<text text-anchor="start" x="302.822" y="-892" font-family="Times,serif" font-size="14.00">email :string</text>
<text text-anchor="start" x="302.822" y="-875.2" font-family="Times,serif" font-size="14.00">created_at :datetime</text>
<text text-anchor="start" x="302.822" y="-858.4" font-family="Times,serif" font-size="14.00">updated_at :datetime</text>
<text text-anchor="start" x="302.822" y="-841.6" font-family="Times,serif" font-size="14.00">encrypted_password :string</text>
<text text-anchor="start" x="302.822" y="-824.8" font-family="Times,serif" font-size="14.00">salt :string</text>
<text text-anchor="start" x="302.822" y="-808" font-family="Times,serif" font-size="14.00">email_hash :string</text>
<text text-anchor="start" x="302.822" y="-791.2" font-family="Times,serif" font-size="14.00">user_type :integer</text>
</g>
<!-- User&#45;&gt;Action -->
<g id="edge44" class="edge"><title>User&#45;&gt;Action</title>
<path fill="none" stroke="black" d="M287.625,-784.865C287.084,-784.573 286.542,-784.285 286,-784 227.206,-753.141 198.809,-780.669 141,-748 139.257,-747.015 137.526,-745.978 135.81,-744.896"/>
<ellipse fill="none" stroke="black" cx="291.144" cy="-786.874" rx="4.00002" ry="4.00002"/>
<polygon fill="black" stroke="black" points="135.625,-744.769 129.9,-735.416 131.495,-741.951 127.364,-739.133 127.364,-739.133 127.364,-739.133 131.495,-741.951 124.828,-742.851 135.625,-744.769 135.625,-744.769"/>
</g>
<!-- User&#45;&gt;Authentication -->
<g id="edge36" class="edge"><title>User&#45;&gt;Authentication</title>
<path fill="none" stroke="black" d="M304.976,-777.707C291.312,-761.445 277.405,-744.893 264.802,-729.893"/>
<ellipse fill="none" stroke="black" cx="307.827" cy="-781.101" rx="4.00002" ry="4.00002"/>
<polygon fill="black" stroke="black" points="264.771,-729.857 261.784,-719.305 261.555,-726.028 258.338,-722.2 258.338,-722.2 258.338,-722.2 261.555,-726.028 254.893,-725.095 264.771,-729.857 264.771,-729.857"/>
</g>
<!-- User&#45;&gt;Notification -->
<g id="edge42" class="edge"><title>User&#45;&gt;Notification</title>
<path fill="none" stroke="black" d="M380,-776.102C380,-764.26 380,-752.296 380,-740.919"/>
<ellipse fill="none" stroke="black" cx="380" cy="-780.164" rx="4" ry="4"/>
<polygon fill="black" stroke="black" points="380,-740.658 384.5,-730.658 380,-735.658 380,-730.658 380,-730.658 380,-730.658 380,-735.658 375.5,-730.658 380,-740.658 380,-740.658"/>
</g>
<!-- User&#45;&gt;Offer -->
<g id="edge40" class="edge"><title>User&#45;&gt;Offer</title>
<path fill="none" stroke="black" d="M454.928,-777.821C461.233,-770.318 467.589,-762.752 473.847,-755.305"/>
<ellipse fill="none" stroke="black" cx="452.173" cy="-781.101" rx="4.00002" ry="4.00002"/>
<polygon fill="black" stroke="black" points="474.158,-754.935 484.036,-750.173 477.374,-751.107 480.591,-747.278 480.591,-747.278 480.591,-747.278 477.374,-751.107 477.145,-744.384 474.158,-754.935 474.158,-754.935"/>
</g>
<!-- User&#45;&gt;Project -->
<g id="edge38" class="edge"><title>User&#45;&gt;Project</title>
<path fill="none" stroke="black" d="M472.905,-841.364C522.743,-823.064 581.291,-793.473 618,-748 661.809,-693.732 613.034,-650.14 657,-596 705.746,-535.974 787.612,-500.347 849.557,-480.72"/>
<ellipse fill="none" stroke="black" cx="469.068" cy="-842.742" rx="4.00001" ry="4.00001"/>
<polygon fill="black" stroke="black" points="849.764,-480.655 860.647,-482.005 854.542,-479.18 859.319,-477.705 859.319,-477.705 859.319,-477.705 854.542,-479.18 857.992,-473.406 849.764,-480.655 849.764,-480.655"/>
</g>
<!-- ActiveRecord::Observer -->
<g id="node23" class="node"><title>ActiveRecord::Observer</title>
<ellipse fill="none" stroke="black" cx="1684" cy="-868" rx="105.134" ry="18"/>
<text text-anchor="middle" x="1684" y="-862.4" font-family="Times,serif" font-size="14.00">ActiveRecord::Observer</text>
</g>
<!-- ActiveRecord::Observer&#45;&gt;ActionObserver -->
<g id="edge2" class="edge"><title>ActiveRecord::Observer&#45;&gt;ActionObserver</title>
<path fill="none" stroke="black" d="M1678.76,-849.784C1668.22,-815.102 1644.39,-736.759 1632.31,-697.047"/>
</g>
<!-- ActiveRecord::Observer&#45;&gt;OfferObserver -->
<g id="edge10" class="edge"><title>ActiveRecord::Observer&#45;&gt;OfferObserver</title>
<path fill="none" stroke="black" d="M1689.32,-849.784C1700.05,-815.102 1724.28,-736.759 1736.56,-697.047"/>
</g>
</g>
</svg>
