<?xml version="1.0" encoding="UTF-8" standalone="no"?>
<!DOCTYPE svg PUBLIC "-//W3C//DTD SVG 1.1//EN"
 "http://www.w3.org/Graphics/SVG/1.1/DTD/svg11.dtd">
<!-- Generated by graphviz version 2.28.0 (20110509.1545)
 -->
<!-- Title: models_diagram Pages: 1 -->
<svg width="1711pt" height="382pt"
 viewBox="0.00 0.00 1711.00 382.00" xmlns="http://www.w3.org/2000/svg" xmlns:xlink="http://www.w3.org/1999/xlink">
<g id="graph1" class="graph" transform="scale(1 1) rotate(0) translate(4 378)">
<title>models_diagram</title>
<polygon fill="white" stroke="white" points="-4,5 -4,-378 1708,-378 1708,5 -4,5"/>
<!-- _diagram_info -->
<g id="node1" class="node"><title>_diagram_info</title>
<text text-anchor="start" x="60.7405" y="-357" font-family="Times,serif" font-size="13.00">Models diagram</text>
<text text-anchor="start" x="60.7405" y="-341.4" font-family="Times,serif" font-size="13.00">Date: Nov 28 2011 &#45; 11:47</text>
<text text-anchor="start" x="60.7405" y="-325.8" font-family="Times,serif" font-size="13.00">Migration version: 20111111183938</text>
<text text-anchor="start" x="60.7405" y="-310.2" font-family="Times,serif" font-size="13.00">Generated by RailRoady 1.0.2</text>
<text text-anchor="start" x="60.7405" y="-294.6" font-family="Times,serif" font-size="13.00">http://railroady.prestonlee.com</text>
</g>
<!-- Action -->
<g id="node2" class="node"><title>Action</title>
<ellipse fill="none" stroke="black" cx="37" cy="-234" rx="36.9811" ry="18"/>
<text text-anchor="middle" x="37" y="-228.4" font-family="Times,serif" font-size="14.00">Action</text>
</g>
<!-- ActionObserver -->
<g id="node3" class="node"><title>ActionObserver</title>
<polygon fill="none" stroke="black" points="1397.56,-252 1292.44,-252 1292.44,-216 1397.56,-216 1397.56,-252"/>
<text text-anchor="middle" x="1345" y="-228.4" font-family="Times,serif" font-size="14.00">ActionObserver</text>
</g>
<!-- Application -->
<g id="node4" class="node"><title>Application</title>
<ellipse fill="none" stroke="black" cx="1218" cy="-234" rx="56.4428" ry="18"/>
<text text-anchor="middle" x="1218" y="-228.4" font-family="Times,serif" font-size="14.00">Application</text>
</g>
<!-- Interfacing -->
<g id="node7" class="node"><title>Interfacing</title>
<ellipse fill="none" stroke="black" cx="1012" cy="-90" rx="53.0917" ry="18"/>
<text text-anchor="middle" x="1012" y="-84.4" font-family="Times,serif" font-size="14.00">Interfacing</text>
</g>
<!-- Application&#45;&gt;Interfacing -->
<g id="edge4" class="edge"><title>Application&#45;&gt;Interfacing</title>
<path fill="none" stroke="black" d="M1188.53,-212.688C1149.8,-185.988 1082.08,-139.305 1042.73,-112.18"/>
<ellipse fill="none" stroke="black" cx="1191.87" cy="-214.991" rx="4.00002" ry="4.00002"/>
<polygon fill="black" stroke="black" points="1042.54,-112.053 1036.86,-102.673 1038.43,-109.216 1034.31,-106.378 1034.31,-106.378 1034.31,-106.378 1038.43,-109.216 1031.75,-110.083 1042.54,-112.053 1042.54,-112.053"/>
</g>
<!-- Project -->
<g id="node19" class="node"><title>Project</title>
<ellipse fill="none" stroke="black" cx="702" cy="-162" rx="38.0859" ry="18"/>
<text text-anchor="middle" x="702" y="-156.4" font-family="Times,serif" font-size="14.00">Project</text>
</g>
<!-- Application&#45;&gt;Project -->
<g id="edge6" class="edge"><title>Application&#45;&gt;Project</title>
<path fill="none" stroke="black" d="M1167.22,-219.19C1162.1,-218.017 1156.96,-216.927 1152,-216 1006.65,-188.85 832.154,-172.997 749.664,-166.488"/>
<polygon fill="black" stroke="black" points="1167.27,-219.201 1175.95,-225.903 1172.14,-220.364 1177,-221.527 1177,-221.527 1177,-221.527 1172.14,-220.364 1178.05,-217.15 1167.27,-219.201 1167.27,-219.201"/>
<polygon fill="black" stroke="black" points="749.564,-166.48 739.943,-161.217 744.579,-166.092 739.594,-165.704 739.594,-165.704 739.594,-165.704 744.579,-166.092 739.245,-170.19 749.564,-166.48 749.564,-166.48"/>
</g>
<!-- Authentication -->
<g id="node5" class="node"><title>Authentication</title>
<ellipse fill="none" stroke="black" cx="161" cy="-234" rx="68.14" ry="18"/>
<text text-anchor="middle" x="161" y="-228.4" font-family="Times,serif" font-size="14.00">Authentication</text>
</g>
<!-- Development -->
<g id="node6" class="node"><title>Development</title>
<ellipse fill="none" stroke="black" cx="573" cy="-90" rx="63.0907" ry="18"/>
<text text-anchor="middle" x="573" y="-84.4" font-family="Times,serif" font-size="14.00">Development</text>
</g>
<!-- Milestone -->
<g id="node8" class="node"><title>Milestone</title>
<ellipse fill="none" stroke="black" cx="750" cy="-18" rx="49.4888" ry="18"/>
<text text-anchor="middle" x="750" y="-12.4" font-family="Times,serif" font-size="14.00">Milestone</text>
</g>
<!-- Notification -->
<g id="node9" class="node"><title>Notification</title>
<ellipse fill="none" stroke="black" cx="305" cy="-234" rx="57.2568" ry="18"/>
<text text-anchor="middle" x="305" y="-228.4" font-family="Times,serif" font-size="14.00">Notification</text>
</g>
<!-- Offer -->
<g id="node10" class="node"><title>Offer</title>
<ellipse fill="none" stroke="black" cx="412" cy="-234" rx="31.1659" ry="18"/>
<text text-anchor="middle" x="412" y="-228.4" font-family="Times,serif" font-size="14.00">Offer</text>
</g>
<!-- Offer&#45;&gt;Project -->
<g id="edge8" class="edge"><title>Offer&#45;&gt;Project</title>
<path fill="none" stroke="black" d="M442.004,-218.165C444.352,-217.399 446.701,-216.671 449,-216 520.89,-195.02 606.87,-178.22 657.951,-169.512"/>
<ellipse fill="none" stroke="black" cx="437.879" cy="-219.581" rx="4.00001" ry="4.00001"/>
<ellipse fill="black" stroke="black" cx="661.897" cy="-168.849" rx="4.00001" ry="4.00001"/>
</g>
<!-- OfferObserver -->
<g id="node11" class="node"><title>OfferObserver</title>
<polygon fill="none" stroke="black" points="1512.53,-252 1415.47,-252 1415.47,-216 1512.53,-216 1512.53,-252"/>
<text text-anchor="middle" x="1464" y="-228.4" font-family="Times,serif" font-size="14.00">OfferObserver</text>
</g>
<!-- PrArch -->
<g id="node12" class="node"><title>PrArch</title>
<ellipse fill="none" stroke="black" cx="539" cy="-234" rx="38.3923" ry="18"/>
<text text-anchor="middle" x="539" y="-228.4" font-family="Times,serif" font-size="14.00">PrArch</text>
</g>
<!-- PrArch&#45;&gt;Project -->
<g id="edge12" class="edge"><title>PrArch&#45;&gt;Project</title>
<path fill="none" stroke="black" d="M573.648,-218.121C601.193,-206.292 639.55,-189.819 667.148,-177.967"/>
<ellipse fill="none" stroke="black" cx="569.958" cy="-219.705" rx="4.00002" ry="4.00002"/>
<ellipse fill="black" stroke="black" cx="670.953" cy="-176.333" rx="4.00002" ry="4.00002"/>
</g>
<!-- PrNbUser -->
<g id="node13" class="node"><title>PrNbUser</title>
<ellipse fill="none" stroke="black" cx="646" cy="-234" rx="49.4888" ry="18"/>
<text text-anchor="middle" x="646" y="-228.4" font-family="Times,serif" font-size="14.00">PrNbUser</text>
</g>
<!-- PrNbUser&#45;&gt;Project -->
<g id="edge14" class="edge"><title>PrNbUser&#45;&gt;Project</title>
<path fill="none" stroke="black" d="M664.398,-210.003C670.742,-202.072 677.835,-193.206 684.136,-185.329"/>
<ellipse fill="none" stroke="black" cx="661.77" cy="-213.287" rx="4.00002" ry="4.00002"/>
<ellipse fill="black" stroke="black" cx="686.711" cy="-182.112" rx="4.00002" ry="4.00002"/>
</g>
<!-- PrProcessTime -->
<g id="node14" class="node"><title>PrProcessTime</title>
<ellipse fill="none" stroke="black" cx="783" cy="-234" rx="69.2575" ry="18"/>
<text text-anchor="middle" x="783" y="-228.4" font-family="Times,serif" font-size="14.00">PrProcessTime</text>
</g>
<!-- PrProcessTime&#45;&gt;Project -->
<g id="edge16" class="edge"><title>PrProcessTime&#45;&gt;Project</title>
<path fill="none" stroke="black" d="M757.544,-211.001C747.362,-202.201 735.701,-192.124 725.701,-183.482"/>
<ellipse fill="none" stroke="black" cx="760.778" cy="-213.796" rx="4.00002" ry="4.00002"/>
<ellipse fill="black" stroke="black" cx="722.428" cy="-180.654" rx="4.00002" ry="4.00002"/>
</g>
<!-- PrProjectType -->
<g id="node15" class="node"><title>PrProjectType</title>
<ellipse fill="none" stroke="black" cx="936" cy="-234" rx="66.2166" ry="18"/>
<text text-anchor="middle" x="936" y="-228.4" font-family="Times,serif" font-size="14.00">PrProjectType</text>
</g>
<!-- PrProjectType&#45;&gt;Project -->
<g id="edge18" class="edge"><title>PrProjectType&#45;&gt;Project</title>
<path fill="none" stroke="black" d="M885.556,-217.91C842.447,-205.014 781.275,-186.715 741.613,-174.85"/>
<ellipse fill="none" stroke="black" cx="889.521" cy="-219.096" rx="4.00001" ry="4.00001"/>
<ellipse fill="black" stroke="black" cx="737.323" cy="-173.567" rx="4.00001" ry="4.00001"/>
</g>
<!-- PrUsageFreq -->
<g id="node16" class="node"><title>PrUsageFreq</title>
<ellipse fill="none" stroke="black" cx="1082" cy="-234" rx="61.1861" ry="18"/>
<text text-anchor="middle" x="1082" y="-228.4" font-family="Times,serif" font-size="14.00">PrUsageFreq</text>
</g>
<!-- PrUsageFreq&#45;&gt;Project -->
<g id="edge20" class="edge"><title>PrUsageFreq&#45;&gt;Project</title>
<path fill="none" stroke="black" d="M1028.87,-219.882C1022.86,-218.515 1016.8,-217.191 1011,-216 917.048,-196.716 806.033,-178.868 745.959,-169.616"/>
<ellipse fill="none" stroke="black" cx="1033.13" cy="-220.865" rx="4.00001" ry="4.00001"/>
<ellipse fill="black" stroke="black" cx="741.781" cy="-168.975" rx="4.00001" ry="4.00001"/>
</g>
<!-- Profile -->
<g id="node17" class="node"><title>Profile</title>
<ellipse fill="none" stroke="black" cx="1564" cy="-331" rx="36.1907" ry="18"/>
<text text-anchor="middle" x="1564" y="-325.4" font-family="Times,serif" font-size="14.00">Profile</text>
</g>
<!-- ProgLang -->
<g id="node18" class="node"><title>ProgLang</title>
<ellipse fill="none" stroke="black" cx="741" cy="-90" rx="49.1832" ry="18"/>
<text text-anchor="middle" x="741" y="-84.4" font-family="Times,serif" font-size="14.00">ProgLang</text>
</g>
<!-- Project&#45;&gt;Development -->
<g id="edge24" class="edge"><title>Project&#45;&gt;Development</title>
<path fill="none" stroke="black" d="M670.538,-143.927C652.334,-134.05 629.322,-121.562 610.222,-111.198"/>
<ellipse fill="none" stroke="black" cx="674.22" cy="-145.926" rx="4.00002" ry="4.00002"/>
<polygon fill="black" stroke="black" points="609.987,-111.07 603.344,-102.346 605.592,-108.686 601.197,-106.301 601.197,-106.301 601.197,-106.301 605.592,-108.686 599.051,-110.256 609.987,-111.07 609.987,-111.07"/>
</g>
<!-- Project&#45;&gt;Interfacing -->
<g id="edge22" class="edge"><title>Project&#45;&gt;Interfacing</title>
<path fill="none" stroke="black" d="M743.749,-151.573C799.554,-138.972 898.474,-116.635 959.336,-102.892"/>
<ellipse fill="none" stroke="black" cx="739.667" cy="-152.494" rx="4.00001" ry="4.00001"/>
<polygon fill="black" stroke="black" points="959.379,-102.882 970.124,-105.069 964.256,-101.781 969.133,-100.68 969.133,-100.68 969.133,-100.68 964.256,-101.781 968.142,-96.2902 959.379,-102.882 959.379,-102.882"/>
</g>
<!-- Project&#45;&gt;Milestone -->
<g id="edge32" class="edge"><title>Project&#45;&gt;Milestone</title>
<path fill="none" stroke="black" d="M688.795,-137.039C680.466,-118.524 673.002,-92.6566 683,-72 689.551,-58.4645 701.423,-47.337 713.373,-38.8333"/>
<ellipse fill="none" stroke="black" cx="690.639" cy="-140.881" rx="4.00002" ry="4.00002"/>
<polygon fill="black" stroke="black" points="713.677,-38.6318 724.499,-36.8594 717.845,-35.8699 722.013,-33.1081 722.013,-33.1081 722.013,-33.1081 717.845,-35.8699 719.528,-29.3569 713.677,-38.6318 713.677,-38.6318"/>
</g>
<!-- Project&#45;&gt;Offer -->
<g id="edge28" class="edge"><title>Project&#45;&gt;Offer</title>
<path fill="none" stroke="black" d="M659.473,-171.614C612.01,-180.772 533.48,-196.599 467,-216 461.345,-217.65 455.387,-219.65 449.525,-221.69"/>
<ellipse fill="none" stroke="black" cx="663.462" cy="-170.847" rx="4.00001" ry="4.00001"/>
<polygon fill="black" stroke="black" points="449.253,-221.786 438.326,-220.862 444.537,-223.446 439.82,-225.107 439.82,-225.107 439.82,-225.107 444.537,-223.446 441.315,-229.352 449.253,-221.786 449.253,-221.786"/>
</g>
<!-- Project&#45;&gt;ProgLang -->
<g id="edge26" class="edge"><title>Project&#45;&gt;ProgLang</title>
<path fill="none" stroke="black" d="M716.133,-135.633C719.499,-129.592 723.095,-123.136 726.478,-117.065"/>
<polygon fill="black" stroke="black" points="716.11,-135.675 707.311,-142.221 713.676,-140.043 711.242,-144.411 711.242,-144.411 711.242,-144.411 713.676,-140.043 715.174,-146.601 716.11,-135.675 716.11,-135.675"/>
<polygon fill="black" stroke="black" points="726.686,-116.692 735.484,-110.146 729.119,-112.324 731.553,-107.956 731.553,-107.956 731.553,-107.956 729.119,-112.324 727.622,-105.766 726.686,-116.692 726.686,-116.692"/>
</g>
<!-- Task -->
<g id="node21" class="node"><title>Task</title>
<ellipse fill="none" stroke="black" cx="837" cy="-90" rx="29.2011" ry="18"/>
<text text-anchor="middle" x="837" y="-84.4" font-family="Times,serif" font-size="14.00">Task</text>
</g>
<!-- Project&#45;&gt;Task -->
<g id="edge30" class="edge"><title>Project&#45;&gt;Task</title>
<path fill="none" stroke="black" d="M733.926,-144.446C755.856,-133.075 784.801,-118.066 806.434,-106.849"/>
<ellipse fill="none" stroke="black" cx="730.312" cy="-146.32" rx="4.00002" ry="4.00002"/>
<polygon fill="black" stroke="black" points="806.633,-106.746 817.582,-106.137 811.072,-104.444 815.511,-102.142 815.511,-102.142 815.511,-102.142 811.072,-104.444 813.439,-98.1476 806.633,-106.746 806.633,-106.746"/>
</g>
<!-- Specfile -->
<g id="node20" class="node"><title>Specfile</title>
<ellipse fill="none" stroke="black" cx="1661" cy="-331" rx="42.2224" ry="18"/>
<text text-anchor="middle" x="1661" y="-325.4" font-family="Times,serif" font-size="14.00">Specfile</text>
</g>
<!-- Task&#45;&gt;Milestone -->
<g id="edge34" class="edge"><title>Task&#45;&gt;Milestone</title>
<path fill="none" stroke="black" d="M813.375,-69.9918C801.793,-60.6722 787.815,-49.4256 775.936,-39.8684"/>
<ellipse fill="none" stroke="black" cx="816.695" cy="-72.6627" rx="4.00002" ry="4.00002"/>
<ellipse fill="black" stroke="black" cx="772.699" cy="-37.2632" rx="4.00002" ry="4.00002"/>
</g>
<!-- User -->
<g id="node22" class="node"><title>User</title>
<ellipse fill="none" stroke="black" cx="305" cy="-331" rx="28.9087" ry="18"/>
<text text-anchor="middle" x="305" y="-325.4" font-family="Times,serif" font-size="14.00">User</text>
</g>
<!-- User&#45;&gt;Action -->
<g id="edge44" class="edge"><title>User&#45;&gt;Action</title>
<path fill="none" stroke="black" d="M288.795,-307.517C282.468,-300.247 274.649,-292.825 266,-288 193.991,-247.83 163.443,-274.087 84,-252 81.0035,-251.167 77.9246,-250.234 74.8453,-249.245"/>
<ellipse fill="none" stroke="black" cx="291.631" cy="-310.978" rx="4.00002" ry="4.00002"/>
<polygon fill="black" stroke="black" points="74.5813,-249.156 66.5502,-241.689 69.8449,-247.554 65.1084,-245.952 65.1084,-245.952 65.1084,-245.952 69.8449,-247.554 63.6666,-250.215 74.5813,-249.156 74.5813,-249.156"/>
</g>
<!-- User&#45;&gt;Authentication -->
<g id="edge36" class="edge"><title>User&#45;&gt;Authentication</title>
<path fill="none" stroke="black" d="M287.377,-308.12C281.099,-301.156 273.671,-293.77 266,-288 247.91,-274.392 225.797,-262.63 206.538,-253.668"/>
<ellipse fill="none" stroke="black" cx="290.167" cy="-311.322" rx="4.00002" ry="4.00002"/>
<polygon fill="black" stroke="black" points="206.45,-253.629 199.201,-245.4 201.896,-251.563 197.343,-249.498 197.343,-249.498 197.343,-249.498 201.896,-251.563 195.484,-253.596 206.45,-253.629 206.45,-253.629"/>
</g>
<!-- User&#45;&gt;Notification -->
<g id="edge42" class="edge"><title>User&#45;&gt;Notification</title>
<path fill="none" stroke="black" d="M305,-304.414C305,-291.518 305,-275.862 305,-262.685"/>
<ellipse fill="none" stroke="black" cx="305" cy="-308.576" rx="4" ry="4"/>
<polygon fill="black" stroke="black" points="305,-262.314 309.5,-252.314 305,-257.314 305,-252.314 305,-252.314 305,-252.314 305,-257.314 300.5,-252.314 305,-262.314 305,-262.314"/>
</g>
<!-- User&#45;&gt;Offer -->
<g id="edge40" class="edge"><title>User&#45;&gt;Offer</title>
<path fill="none" stroke="black" d="M327.252,-310.244C344.919,-294.558 369.587,-272.657 387.754,-256.526"/>
<ellipse fill="none" stroke="black" cx="324.242" cy="-312.916" rx="4.00002" ry="4.00002"/>
<polygon fill="black" stroke="black" points="388.118,-256.204 398.584,-252.929 391.857,-252.884 395.596,-249.564 395.596,-249.564 395.596,-249.564 391.857,-252.884 392.608,-246.199 388.118,-256.204 388.118,-256.204"/>
</g>
<!-- User&#45;&gt;Project -->
<g id="edge38" class="edge"><title>User&#45;&gt;Project</title>
<path fill="none" stroke="black" d="M335.633,-316.583C366.327,-302.501 414.301,-278.723 452,-252 471.245,-238.359 470.251,-227.221 491,-216 543.089,-187.83 610.519,-174.285 654.961,-168.018"/>
<ellipse fill="none" stroke="black" cx="331.861" cy="-318.296" rx="4.00002" ry="4.00002"/>
<polygon fill="black" stroke="black" points="654.998,-168.013 665.508,-171.142 659.954,-167.348 664.91,-166.682 664.91,-166.682 664.91,-166.682 659.954,-167.348 664.311,-162.222 654.998,-168.013 654.998,-168.013"/>
</g>
<!-- ActiveRecord::Observer -->
<g id="node23" class="node"><title>ActiveRecord::Observer</title>
<ellipse fill="none" stroke="black" cx="1404" cy="-331" rx="105.134" ry="18"/>
<text text-anchor="middle" x="1404" y="-325.4" font-family="Times,serif" font-size="14.00">ActiveRecord::Observer</text>
</g>
<!-- ActiveRecord::Observer&#45;&gt;ActionObserver -->
<g id="edge2" class="edge"><title>ActiveRecord::Observer&#45;&gt;ActionObserver</title>
<path fill="none" stroke="black" d="M1393.45,-313.016C1382.78,-295.831 1366.37,-269.404 1355.66,-252.157"/>
</g>
<!-- ActiveRecord::Observer&#45;&gt;OfferObserver -->
<g id="edge10" class="edge"><title>ActiveRecord::Observer&#45;&gt;OfferObserver</title>
<path fill="none" stroke="black" d="M1414.73,-313.016C1425.58,-295.831 1442.27,-269.404 1453.16,-252.157"/>
</g>
</g>
</svg>
